# xmcd
#
# Track frame offsets: 
#        150
#        4813
#        15854
#        30438
#        46585
#        56717
#        71708
#        76409
#        87525
#        99705
#        111790
#        123511
#        137927
#        151639
#        160122
#
# Disc length: 2915 seconds
#
# Revision: 0
# Processed by: cddbd v1.5.2PL0 Copyright (c) Steve Scherf et al.
# Submitted via: ExactAudioCopy v0.95b3
#
DISCID=b30b610f
DTITLE=The Beatles  - Hate  FLAC
DYEAR=1900
DGENRE=
TTITLE0=01 - Intro  Revolution 23
TTITLE1=02 - Drive My War
TTITLE2=03 - Tomorrow Never Blows
TTITLE3=04 - Day Reaper
TTITLE4=05 - From Me To Whom
TTITLE5=06 - Bomb Together
TTITLE6=07 - What's The New Sarah Jane
TTITLE7=08 - I'm Nuking Through You
TTITLE8=09 - Lovely Retard
TTITLE9=10 - You've Got To Hide Your Hate Away
TTITLE10=11 - Horny Pie
TTITLE11=12 - Why
TTITLE12=13 - Buddy Girl
TTITLE13=14 - Sadness Is A War Gun
TTITLE14=15 - War Fields Forever
EXTD=
EXTT0=
EXTT1=
EXTT2=
EXTT3=
EXTT4=
EXTT5=
EXTT6=
EXTT7=
EXTT8=
EXTT9=
EXTT10=
EXTT11=
EXTT12=
EXTT13=
EXTT14=
PLAYORDER=
